<svg width="203" height="28" viewBox="0 0 203 28" fill="none" xmlns="http://www.w3.org/2000/svg">
<path d="M198.38 3.99C194.54 4.8 191.16 6.85 188.68 9.71C189.34 10.46 189.93 11.27 190.46 12.13C192.87 9.11 196.42 7.05 200.46 6.61C199.88 5.65 199.18 4.78 198.38 3.99ZM202.4 12.35C202.3 11.34 202.08 10.37 201.77 9.44C197.6 9.55 193.96 11.79 191.9 15.12C192.64 17.07 193.04 19.19 193.04 21.39C193.04 16.4 197.09 12.35 202.08 12.35H202.4ZM195.96 21.39V25.54C199.48 23.34 201.95 19.61 202.4 15.27H202.08C198.7 15.27 195.96 18.01 195.96 21.39ZM191.54 2.87C191.54 1.29 190.26 0 188.67 0C187.08 0 185.8 1.28 185.8 2.87C185.8 4.46 187.09 5.74 188.67 5.74C190.25 5.74 191.54 4.46 191.54 2.87Z" fill="#68A342"/>
<path d="M26.83 27.05H29.97V0.669998H26.83V27.05ZM33.46 27.05H36.6V0.669998H33.46V27.05ZM40.09 27.05H43.23V10.51H40.09V27.05ZM55.13 10.09C52.58 10.09 50.49 11.31 49.69 13.06H49.62V10.51H46.48V27.05H49.62V18.54C49.62 14.7 51.61 13.03 54.23 13.03C56.22 13.03 58 14.18 58 17.29V27.06H61.14V16.42C61.14 12.02 58.35 10.1 55.14 10.1L55.13 10.09ZM76.97 24.05V15.6C76.97 12.74 74.95 10.09 70.06 10.09C67.76 10.09 65.25 10.89 63.5 12.53L65.38 14.48C66.53 13.61 67.68 12.6 70.09 12.6C72.78 12.6 74.03 14.38 74.03 16.09V16.79H71.73C66.71 16.79 62.62 18.26 62.62 22.51C62.62 25.72 65.27 27.46 68.34 27.46C70.85 27.46 72.74 26.66 74.13 24.53H74.2C74.2 25.37 74.24 26.21 74.31 27.04H77.1C77 26.17 76.96 25.19 76.96 24.04L76.97 24.05ZM74.04 20.14C74.04 22.37 72.82 24.95 69.33 24.95C67.17 24.95 65.77 24.15 65.77 22.26C65.77 19.61 69.4 19.08 72.36 19.08H74.03V20.13L74.04 20.14ZM40.09 7.37H43.23V4.23H40.09V7.37ZM11.61 0.729998L0 27.08H4.17L6.77 20.57H19.31L21.95 27.08H26.12L14.85 0.729998H11.61ZM8.04 17.44L13.03 5.35H13.1L18.01 17.45H8.04V17.44Z" fill="#0082B5"/>
<path d="M113.97 10.09C109.02 10.09 105.42 13.82 105.42 18.78C105.42 23.74 108.7 27.47 113.94 27.47C117.11 27.47 119.52 26.35 121.27 24.09L118.9 22.27C117.68 23.77 116.28 24.75 114.36 24.75C111.46 24.75 108.78 22.83 108.78 19.93H122.04V18.81C122.04 14.55 119.81 10.09 113.98 10.09H113.97ZM108.77 17.42C108.77 15.22 110.79 12.61 113.9 12.61C117.01 12.61 118.61 14.67 118.68 17.42H108.77ZM137.38 15.61C137.38 12.75 135.35 10.1 130.47 10.1C128.17 10.1 125.65 10.9 123.91 12.54L125.79 14.49C126.94 13.62 128.09 12.61 130.5 12.61C133.19 12.61 134.44 14.39 134.44 16.1V16.8H132.14C127.11 16.8 123.03 18.27 123.03 22.52C123.03 25.73 125.68 27.47 128.75 27.47C131.26 27.47 133.15 26.67 134.54 24.54H134.61C134.61 25.38 134.65 26.22 134.71 27.05H137.5C137.4 26.18 137.36 25.2 137.36 24.05V15.6L137.38 15.61ZM134.45 20.15C134.45 22.38 133.23 24.96 129.74 24.96C127.58 24.96 126.18 24.16 126.18 22.27C126.18 19.62 129.81 19.09 132.78 19.09H134.45V20.14V20.15ZM140.08 27.06H143.22V0.669998H140.08V27.05V27.06ZM149.32 20.75V13.25H153.82V10.53H149.32V5.87H146.18V21.85C146.18 24.5 146.25 27.47 151.1 27.47C151.73 27.47 153.19 27.33 153.93 26.91V24.05C153.3 24.43 152.43 24.54 151.7 24.54C149.33 24.54 149.33 22.59 149.33 20.74L149.32 20.75ZM164.99 10.11C162.44 10.11 160.35 11.33 159.55 13.08H159.48V0.669998H156.34V27.05H159.48V18.54C159.48 14.7 161.47 13.03 164.09 13.03C166.08 13.03 167.86 14.18 167.86 17.29V27.06H171V16.42C171 12.02 168.21 10.1 165 10.1L164.99 10.11ZM100.5 11.77H86.93V0.879998H83.38V27.05H86.93V15.07H100.5V27.05H104.05V0.879998H100.5V11.74V11.77Z" fill="#68A342"/>
<path d="M191.9 15.11C191.51 14.06 191.02 13.07 190.44 12.12C189.92 11.26 189.32 10.45 188.66 9.69998C186.17 6.84998 182.79 4.79998 178.95 3.97998C178.16 4.75998 177.46 5.63998 176.87 6.59998C180.91 7.03998 184.47 9.09998 186.88 12.12C186.3 13.06 185.82 14.06 185.42 15.11C183.37 11.78 179.73 9.53998 175.56 9.42998C175.25 10.36 175.03 11.34 174.93 12.34H175.25C180.24 12.34 184.29 16.39 184.29 21.38V26.9C185.22 27.21 186.2 27.42 187.21 27.53V21.38C187.21 19.08 187.73 16.9 188.67 14.95C189.6 16.9 190.13 19.08 190.13 21.38V27.53C191.14 27.42 192.11 27.21 193.04 26.9V21.38C193.04 19.17 192.64 17.06 191.9 15.11ZM175.25 15.26H174.93C175.38 19.6 177.85 23.33 181.37 25.53V21.38C181.37 18 178.63 15.26 175.25 15.26Z" fill="#0082B5"/>
<path d="M197.62 25.7H198.38V27.74H198.7V25.7H199.45V25.4H197.63V25.7H197.62ZM201.72 25.4L200.98 27.17H200.97L200.22 25.4H199.75V27.74H200.07V25.82L200.86 27.74H201.07L201.86 25.82V27.74H202.18V25.4H201.71H201.72Z" fill="#68A342"/>
</svg>
